HIERARCHY
ROOT Pelvis
{
	OFFSET 0.000000 0.000000 0.000000
	CHANNELS 6 Xposition Yposition Zposition Xrotation Yrotation Zrotation
	JOINT LeftUpLeg_virtual
	{
		OFFSET 0.000000 0.000000 0.000000
		CHANNELS 3 Xrotation Yrotation Zrotation
		JOINT LeftUpLeg
		{
			OFFSET 18.735201 -5.666702 -4.541200
			CHANNELS 3 Xrotation Yrotation Zrotation
			JOINT LeftLeg
			{
				OFFSET -0.021200 -31.938179 0.493100
				CHANNELS 3 Xrotation Yrotation Zrotation
				JOINT LeftFoot
				{
					OFFSET 0.021200 -31.938179 -4.336299
					CHANNELS 3 Xrotation Yrotation Zrotation
					JOINT LeftToeBase
					{
						OFFSET 0.943001 -26.722000 15.023500
						CHANNELS 3 Xrotation Yrotation Zrotation
						End Site
						{
							OFFSET 0 0 0
						}
					}
				}
			}
		}
	}
	JOINT RightUpLeg_virtual
	{
		OFFSET 0.000000 0.000000 0.000000
		CHANNELS 3 Xrotation Yrotation Zrotation
		JOINT RightUpLeg
		{
			OFFSET -18.735201 -5.666702 -4.541200
			CHANNELS 3 Xrotation Yrotation Zrotation
			JOINT RightLeg
			{
				OFFSET 0.018946 -31.938133 0.493100
				CHANNELS 3 Xrotation Yrotation Zrotation
				JOINT RightFoot
				{
					OFFSET -0.018946 -31.938126 -4.336299
					CHANNELS 3 Xrotation Yrotation Zrotation
					JOINT RightToeBase
					{
						OFFSET -0.943001 -26.722004 15.023500
						CHANNELS 3 Xrotation Yrotation Zrotation
						End Site
						{
							OFFSET 0 0 0
						}
					}
				}
			}
		}
	}
	JOINT Hips_virtual
	{
		OFFSET 0.000000 0.000000 0.000000
		CHANNELS 3 Xrotation Yrotation Zrotation
		JOINT Hips
		{
			OFFSET -0.000000 -0.000000 -0.000000
			CHANNELS 3 Xrotation Yrotation Zrotation
			JOINT Spine
			{
				OFFSET 0.000000 10.199997 -0.299500
				CHANNELS 3 Xrotation Yrotation Zrotation
				JOINT Spine1
				{
					OFFSET 0.000000 11.900002 -1.516600
					CHANNELS 3 Xrotation Yrotation Zrotation
					JOINT Spine2
					{
						OFFSET 0.000000 13.600006 -2.842500
						CHANNELS 3 Xrotation Yrotation Zrotation
						JOINT Neck_virtual
						{
							OFFSET 0.000000 0.000000 0.000000
							CHANNELS 3 Xrotation Yrotation Zrotation
							JOINT Neck
							{
								OFFSET 0.000000 9.624100 -2.890100
								CHANNELS 3 Xrotation Yrotation Zrotation
								JOINT Head
								{
									OFFSET 0.000000 14.068802 -1.351900
									CHANNELS 3 Xrotation Yrotation Zrotation
									End Site
									{
										OFFSET 0 0 0
									}
								}
							}
						}
						JOINT LeftShoulder_virtual
						{
							OFFSET 0.000000 0.000000 0.000000
							CHANNELS 3 Xrotation Yrotation Zrotation
							JOINT LeftShoulder
							{
								OFFSET 15.263000 10.923401 -0.547700
								CHANNELS 3 Xrotation Yrotation Zrotation
								JOINT LeftArm
								{
									OFFSET 25.438599 -2.830597 -13.032500
									CHANNELS 3 Xrotation Yrotation Zrotation
									JOINT LeftForeArm
									{
										OFFSET 29.960503 0.000000 0.000000
										CHANNELS 3 Xrotation Yrotation Zrotation
										JOINT LeftHand
										{
											OFFSET 27.849251 0.000000 0.000000
											CHANNELS 3 Xrotation Yrotation Zrotation
											End Site
											{
												OFFSET 0 0 0
											}
										}
									}
								}
							}
						}
						JOINT RightShoulder_virtual
						{
							OFFSET 0.000000 0.000000 0.000000
							CHANNELS 3 Xrotation Yrotation Zrotation
							JOINT RightShoulder
							{
								OFFSET -15.263000 10.923401 -0.547700
								CHANNELS 3 Xrotation Yrotation Zrotation
								JOINT RightArm
								{
									OFFSET -25.438599 -2.830597 -13.032500
									CHANNELS 3 Xrotation Yrotation Zrotation
									JOINT RightForeArm
									{
										OFFSET -29.960503 0.000000 0.000000
										CHANNELS 3 Xrotation Yrotation Zrotation
										JOINT RightHand
										{
											OFFSET -27.849251 0.000000 0.000000
											CHANNELS 3 Xrotation Yrotation Zrotation
											End Site
											{
												OFFSET 0 0 0
											}
										}
									}
								}
							}
						}
					}
				}
			}
		}
	}
}
MOTION
Frames: 4
Frame Time: 0.03333333
10.743460 186.059326 74.790039 0.000000 0.000000 0.000000 6.082128 18.807204 0.683155 -40.305090 17.745953 15.381147 61.500184 -6.969672 -0.630447 8.234582 -0.521577 -17.740609 0.000000 0.000000 0.000000 6.082128 18.807204 0.683155 -55.921412 5.716925 -22.675048 20.219486 8.971232 1.065682 21.510859 20.512708 28.458793 0.000000 0.000000 0.000000 6.082128 18.807204 0.683155 0.000000 0.000002 0.000000 7.295207 -2.193498 -5.033659 14.411474 -2.597693 1.282298 0.000000 0.000000 0.000000 14.393225 -2.607809 1.534273 -1.383491 0.206508 -3.193054 0.000000 0.000000 0.000000 14.393225 -2.607809 1.534273 -1.645773 11.892282 6.117612 -105.464405 -55.286652 -116.659057 -179.999008 -87.101188 -179.998967 0.000000 0.000000 0.000000 14.393225 -2.607809 1.534273 2.075059 14.947594 1.840486 -36.947300 40.337571 63.095034 -0.000013 48.043824 0.000018 0.000000 0.000000 0.000000 
10.887908 183.209564 77.366699 0.000000 0.000000 0.000000 5.017794 18.597632 1.169483 -39.578419 17.839925 15.043565 60.285920 -6.143168 -0.582412 9.634500 -0.910794 -17.663967 0.000000 0.000000 0.000000 5.017794 18.597632 1.169483 -54.165968 5.219681 -22.569747 20.186879 8.601314 1.100574 23.011546 21.398945 27.371153 0.000000 0.000000 0.000000 5.017794 18.597632 1.169483 0.000000 0.000000 0.000000 7.337449 -2.037533 -5.055627 14.383883 -2.380558 1.213553 0.000000 0.000000 0.000000 14.364183 -2.405677 1.448307 -1.329557 0.165142 -3.114223 0.000000 0.000000 0.000000 14.364183 -2.405677 1.448307 -1.522763 11.317934 5.579480 -102.529377 -55.782988 -113.588778 179.998188 -88.008162 179.998243 0.000000 0.000000 0.000000 14.364183 -2.405677 1.448307 2.084716 14.908507 1.923962 -37.666127 40.172601 63.297726 -0.000015 48.302685 0.000002 0.000000 0.000000 0.000000 
11.045309 180.113358 79.924133 0.000000 0.000000 0.000000 3.929929 18.254903 1.627599 -38.569733 17.805880 14.721750 58.754018 -5.792138 -0.553116 10.725282 -1.231584 -17.997128 0.000000 0.000000 0.000000 3.929929 18.254903 1.627599 -52.400590 4.596856 -22.334669 20.430855 8.327452 1.123187 24.348742 21.718881 26.052298 0.000000 0.000000 0.000000 3.929929 18.254903 1.627599 0.000000 -0.000001 0.000000 7.368138 -1.857263 -5.047232 14.331759 -2.196023 1.072489 0.000000 0.000000 0.000000 14.312124 -2.231722 1.291072 -1.262367 0.125273 -2.999952 0.000000 0.000000 0.000000 14.312124 -2.231722 1.291072 -1.447310 10.959916 5.211209 -99.827702 -56.207201 -110.766715 179.996686 -89.304232 179.996877 0.000000 0.000000 0.000000 14.312124 -2.231722 1.291072 2.080138 14.739084 2.062843 -38.227828 39.650980 63.883702 -0.000011 49.554385 0.000010 0.000000 0.000000 0.000000 
11.213257 176.782928 82.461647 0.000000 0.000000 0.000000 2.857834 17.830941 2.026920 -37.364779 17.675245 14.391509 56.897245 -5.746935 -0.535294 11.570717 -1.502201 -18.632732 0.000000 0.000000 0.000000 2.857834 17.830941 2.026920 -50.596218 3.850701 -22.019492 20.859514 8.120584 1.130704 25.517454 21.498234 24.628807 0.000000 0.000000 0.000000 2.857834 17.830941 2.026920 0.000000 0.000001 0.000000 7.380492 -1.661896 -4.993311 14.253378 -2.029492 0.889715 0.000000 0.000000 0.000000 14.234364 -2.070370 1.095187 -1.194253 0.089437 -2.870076 0.000000 0.000000 0.000000 14.234364 -2.070370 1.095187 -1.416798 10.842146 5.015828 -97.509249 -56.558488 -108.357884 -0.002178 -89.118177 -0.002053 0.000000 0.000000 0.000000 14.234364 -2.070370 1.095187 2.065494 14.495178 2.197902 -38.516383 38.803934 64.754933 -0.000030 51.747088 0.000043 0.000000 0.000000 0.000000 
